<svg xmlns="http://www.w3.org/2000/svg" version="1.1" viewBox="-5.0 -10.0 110.0 135.0">
 <path d="m40.965 43.977c0-0.54687-0.44531-0.99219-0.99219-0.99219h-4.1211c-0.26172 0-0.51562 0.10547-0.69922 0.29297-0.1875 0.18359-0.29297 0.4375-0.29297 0.69922v9.6445c0 0.54688 0.44531 0.99219 0.99219 0.99219h4.1211c0.54688 0 0.99219-0.44531 0.99219-0.99219zm-1.9844 8.6523h-2.1328v-7.6562h2.1328zm4.9883-12.758c-0.55078 0-0.99219 0.44531-0.99219 0.99219v12.758c0 0.54688 0.44141 0.99219 0.99219 0.99219h4.1211c0.26172 0 0.51562-0.10547 0.69922-0.29297 0.1875-0.18359 0.29297-0.4375 0.29297-0.69922v-12.758c0-0.26172-0.10547-0.51562-0.29297-0.70312-0.18359-0.18359-0.4375-0.28906-0.69922-0.28906zm3.1328 12.758h-2.1406v-10.773h2.1406zm9.0977-11.914h-4.1211c-0.26172 0-0.51562 0.10547-0.69922 0.29297-0.1875 0.18359-0.29297 0.4375-0.29297 0.70313v11.91c0 0.54688 0.44531 0.99219 0.99219 0.99219h4.1211c0.55078 0 0.99219-0.44531 0.99219-0.99219v-11.91c0-0.26563-0.10156-0.51953-0.28906-0.70313-0.1875-0.1875-0.4375-0.29297-0.70312-0.29297zm-0.99219 11.91-2.1289 0.003906v-9.9297h2.1328zm4.9922 1.9883h4.1211c0.26172 0 0.51563-0.10547 0.70313-0.29297 0.18359-0.18359 0.28906-0.4375 0.28906-0.69922v-20.848c0-0.54688-0.44531-0.99219-0.99219-0.99219h-4.1211c-0.54688 0-0.99219 0.44531-0.99219 0.99219v20.848c0 0.54688 0.44531 0.99219 0.99219 0.99219zm0.99219-20.844h2.1367v18.859h-2.1367zm29.488 33.422-2.8242-0.39844 0.003906-0.003907c-0.28125-1.0039-0.67969-1.9688-1.1914-2.875l1.7148-2.2773v-0.003907c0.29688-0.39453 0.25781-0.94922-0.09375-1.2969l-3.0625-3.0625v-0.003907c-0.34766-0.34766-0.90234-0.38672-1.2969-0.089843l-2.2812 1.7188c-0.90625-0.50781-1.8711-0.91016-2.875-1.1875l-0.39844-2.8242h-0.003906c-0.066406-0.49219-0.48828-0.85547-0.98047-0.85547h-1.1719v-34.871c0-0.54688-0.44531-0.99219-0.99219-0.99219h-3.8281v-3.8242c0-0.54688-0.44141-0.99219-0.99219-0.99219h-40.5c-0.26172 0-0.51172 0.10547-0.69922 0.28906l-11.5 11.5c-0.1875 0.1875-0.28906 0.4375-0.29297 0.70312v1.4297l-0.67187-1.1719c-1.4531-2.5156-4.3008-3.6016-6.3516-2.418h-0.003906c-1.0547 0.64453-1.75 1.7461-1.875 2.9766-0.15234 1.3008 0.12891 2.6094 0.79688 3.7305l8.1133 14.055v36.398h0.003906c0 0.55078 0.44141 0.99609 0.99219 0.99609h3.8242v3.8242l-0.003907-0.003906c0.003907 0.55078 0.44531 0.99219 0.99609 0.99219h54.156c0.49609 0 0.91406-0.36328 0.98438-0.85156l0.39844-2.8242c1.0039-0.28125 1.9688-0.67969 2.875-1.1914l2.2773 1.7148h0.003907c0.39453 0.29688 0.94922 0.25781 1.3008-0.09375l3.0586-3.0664c0.35156-0.35156 0.39063-0.90234 0.09375-1.3008l-1.7148-2.2773c0.50781-0.90625 0.91016-1.875 1.1875-2.875l2.8242-0.39844 0.003906-0.003906c0.48828-0.070313 0.85156-0.48828 0.85156-0.98047v-4.332c0-0.49609-0.36328-0.91406-0.85156-0.98438zm-16.449-47.039v33.875h-1.1719c-0.49609 0-0.91406 0.36328-0.98438 0.85156l-0.39844 2.8242c-0.09375 0.027344-0.18359 0.054687-0.27344 0.082031v-37.633zm-45.312-3.4102v8.1094h-8.1094zm-15.152 17.406 4-2.3086 17.082 29.594 0.59375 5.6406-4.5898-3.332zm-3.2891-7.2227c0.046876-0.62109 0.37891-1.1875 0.90234-1.5273 1.082-0.625 2.75 0.14844 3.6406 1.6914l1.75 3.0312-4 2.3086-1.7461-3.0312c-0.44141-0.74219-0.63672-1.6094-0.54688-2.4727zm8.9258 20.957 9.832 17.031 0.003906 0.003907c0.070313 0.12109 0.16406 0.22266 0.27734 0.30469l6.5625 4.7656 0.007813 0.007813c0.039062 0.027344 0.078124 0.050781 0.12109 0.074218l0.019531 0.007813c0.039063 0.019531 0.082032 0.039063 0.125 0.050781h0.007813c0.042969 0.015625 0.089844 0.023438 0.13281 0.03125h0.03125c0.046874 0.007813 0.089843 0.011719 0.13672 0.011719h16.309c0.54688 0 0.99219-0.44531 0.99219-0.99219 0-0.54688-0.44531-0.99219-0.99219-0.99219h-15.414l-0.75391-7.1719c-0.015625-0.13672-0.058593-0.26953-0.12891-0.39062l-17.266-29.914v-3.875h10.504c0.26562 0 0.51562-0.10547 0.70312-0.28906 0.1875-0.1875 0.28906-0.44141 0.28906-0.70312v-10.508h38.512v43.234c-0.20703 0.10156-0.41406 0.21094-0.61719 0.32422l-2.2773-1.7148c-0.39453-0.29688-0.94922-0.25781-1.2969 0.09375l-3.0625 3.0625h-0.003906c-0.34766 0.34766-0.38672 0.90234-0.089844 1.3008l1.7148 2.2773c-0.51172 0.90625-0.91016 1.875-1.1914 2.875l-2.8242 0.39844v0.003906c-0.48828 0.066406-0.85156 0.48828-0.85547 0.98047v4.3281c0.003906 0.49219 0.36719 0.91016 0.85547 0.98438l2.8242 0.39844h0.003906c0.27734 1.0039 0.67578 1.9688 1.1875 2.875l-1.7148 2.2773v0.003906c-0.17188 0.23047-0.23438 0.52344-0.17578 0.80469h-42.484zm4.8164 33.949h39.434l1.5703 1.5703c0.34766 0.35156 0.90234 0.39062 1.3008 0.089844l2.2773-1.7109c0.90625 0.50781 1.8711 0.91016 2.875 1.1875l0.23828 1.6914-47.691 0.003906zm65.332-10.191-2.6328 0.37109c-0.41016 0.058593-0.73828 0.36328-0.82812 0.76953-0.27734 1.2461-0.76953 2.4336-1.457 3.5117-0.21875 0.35156-0.19922 0.80078 0.046876 1.1289l1.6016 2.1211-1.8438 1.8438-2.1211-1.6016-0.003906 0.003906c-0.33203-0.24609-0.77734-0.26562-1.1289-0.046874-1.0781 0.6875-2.2695 1.1797-3.5156 1.457-0.40625 0.089843-0.71094 0.42188-0.76953 0.83203l-0.37109 2.6328-2.6055-0.003906-0.37109-2.6328v0.003906c-0.058593-0.41016-0.36328-0.74219-0.76953-0.83203-1.2461-0.27734-2.4336-0.76953-3.5117-1.4531-0.35156-0.22266-0.80078-0.20312-1.1289 0.042968l-2.1211 1.6016-1.8438-1.8438 1.6016-2.1211h-0.003906c0.25-0.33203 0.26562-0.78125 0.042968-1.1289-0.68359-1.082-1.1758-2.2695-1.4531-3.5156-0.089843-0.40234-0.41797-0.71094-0.82812-0.76562l-2.6367-0.375v-2.6055l2.6328-0.37109v-0.003906c0.41016-0.054687 0.74219-0.36328 0.83203-0.76562 0.27734-1.2461 0.76953-2.4336 1.4531-3.5117 0.22266-0.35156 0.20312-0.80078-0.046875-1.1289l-1.6016-2.1211 1.8438-1.8438 2.1211 1.6016 0.003907-0.003906c0.33203 0.24609 0.78125 0.26562 1.1289 0.042969 1.0781-0.68359 2.2695-1.1758 3.5156-1.4531 0.40234-0.089843 0.70703-0.42187 0.76562-0.82812l0.37109-2.6328h2.6055l0.37109 2.6328h0.003907c0.058593 0.40625 0.36328 0.73828 0.76562 0.82812 1.2461 0.27734 2.4375 0.76953 3.5156 1.4531 0.34766 0.22266 0.79687 0.20312 1.1289-0.042969l2.1211-1.6016 1.8438 1.8438-1.6016 2.1211 0.003906 0.003906c-0.25 0.33203-0.26562 0.77734-0.046875 1.1289 0.6875 1.0781 1.1797 2.2695 1.4609 3.5156 0.089844 0.40625 0.41797 0.71094 0.82812 0.76562l2.6328 0.37109zm-14.324-7.8164c-3.1094 0-5.7852 2.1914-6.3945 5.2422-0.60938 3.0469 1.0195 6.1016 3.8906 7.2891 2.8711 1.1914 6.1836 0.1875 7.9102-2.3945 1.7305-2.5859 1.3906-6.0273-0.80859-8.2266-1.2148-1.2266-2.8711-1.9102-4.5977-1.9102zm3.1992 9.7109v0.003906c-1.7695 1.7656-4.6328 1.7656-6.4023 0-1.7656-1.7695-1.7656-4.6328 0-6.4023 1.7695-1.7656 4.6328-1.7656 6.4023 0 1.7656 1.7695 1.7656 4.6328 0 6.4023zm-32.859-34.77c5.0742-0.003906 9.1914-4.1172 9.1953-9.1914 0-0.55078-0.44531-0.99609-0.99609-0.99609h-7.207v-7.207c0-0.54688-0.44141-0.99219-0.99219-0.99219-5.0781 0-9.1914 4.1172-9.1914 9.1953 0 5.0742 4.1133 9.1914 9.1914 9.1914zm-0.99219-16.332v7.1406c0 0.54688 0.44531 0.99219 0.99219 0.99219h7.1406c-0.37891 2.707-2.2539 4.9688-4.8477 5.8398-2.5938 0.86719-5.4531 0.19531-7.3867-1.7383-1.9336-1.9336-2.6055-4.793-1.7383-7.3867 0.87109-2.5938 3.1328-4.4688 5.8398-4.8477zm3.8438-4.8984c-0.55078 0-0.99219 0.44531-0.99219 0.99219v8.1992c0 0.55078 0.44141 0.99219 0.99219 0.99219h8.1992c0.26172 0 0.51562-0.10156 0.70312-0.28906 0.18359-0.1875 0.28906-0.4375 0.28906-0.70313 0-5.0781-4.1172-9.1914-9.1914-9.1953zm0.99219 8.1992v-6.1484c3.1914 0.44922 5.6953 2.957 6.1445 6.1445zm4.5508 38.133c0 0.55078-0.44531 0.99219-0.99219 0.99219h-11.27c-0.54688 0-0.99219-0.44141-0.99219-0.99219 0-0.54688 0.44531-0.99219 0.99219-0.99219h11.27c0.54688 0 0.98828 0.44141 0.99219 0.98828zm0 10.645c0 0.54688-0.44531 0.99219-0.99219 0.99219h-26.023c-0.54687 0-0.99219-0.44531-0.99219-0.99219 0-0.55078 0.44531-0.99219 0.99219-0.99219h26.023c0.54688 0 0.98828 0.44141 0.99219 0.98828z"/>
</svg>